<svg xmlns="http://www.w3.org/2000/svg" width="54" height="36" viewBox="0 0 54 36" fill="none">
<path fill-rule="evenodd" clip-rule="evenodd" d="M30.5695 25.3774L27.2911 32.9703L28.6666 33.5629L31.9424 25.976L30.5695 25.3774Z" fill="#262626"/>
<path d="M17.9339 23.7121C17.9319 23.7453 17.92 23.8313 17.8982 23.9701C17.8764 24.1089 17.8443 24.2805 17.8018 24.4848C17.7662 24.6861 17.7242 24.9104 17.6757 25.1577C17.6293 25.4001 17.5759 25.6455 17.5157 25.8937C17.4575 26.1371 17.3973 26.3712 17.3351 26.596C17.273 26.8207 17.2094 27.0138 17.1444 27.175C16.9553 27.644 16.7132 28.0182 16.4183 28.2974C16.1303 28.5737 15.8159 28.7742 15.475 28.8989C15.1411 29.0206 14.7979 29.0734 14.4454 29.0573C14.093 29.0412 13.7598 28.9704 13.4458 28.8448L10.3991 27.6265L10.9576 26.2414L14.0043 27.4597C14.0779 27.4891 14.1848 27.5205 14.3252 27.554C14.4724 27.5845 14.63 27.5822 14.7979 27.5473C14.9708 27.5143 15.1417 27.4294 15.3108 27.2928C15.4847 27.1581 15.6347 26.9344 15.7608 26.6217C15.8041 26.5142 15.8485 26.3759 15.8939 26.2069C15.9462 26.0349 15.995 25.8501 16.0404 25.6527C16.0927 25.4523 16.1411 25.2476 16.1856 25.0384C16.232 24.8244 16.2735 24.6225 16.3101 24.4329C16.3466 24.2433 16.3778 24.0742 16.4035 23.9256C16.4292 23.777 16.4461 23.6646 16.454 23.5884L17.9339 23.7121ZM15.0208 32.7171L13.3499 33.4276L12.6805 31.7813L14.3161 31.0736L15.0208 32.7171ZM12.1962 31.6046L10.5253 32.3151L9.85592 30.6688L11.4915 29.9612L12.1962 31.6046Z" fill="#262626"/>
<path fill-rule="evenodd" clip-rule="evenodd" d="M10.3991 27.6265L10.7156 27.753L11.2741 26.3679L10.9576 26.2414C10.9037 26.2198 10.8085 26.1732 10.6721 26.1017C10.5426 26.0272 10.4166 25.9229 10.2941 25.7888C10.1715 25.6547 10.0819 25.4883 10.0252 25.2898C9.97541 25.0883 10.0057 24.8508 10.116 24.5772L11.0941 22.1514L9.70318 21.5952L7.85922 26.1683C7.64449 26.7008 7.40043 27.1366 7.12704 27.4755C6.85857 27.8163 6.55143 28.0623 6.20565 28.2133C5.86476 28.3664 5.48424 28.427 5.06408 28.3951C4.64686 28.3701 4.18557 28.2566 3.68022 28.0545L2.66462 27.6484L2.10611 29.0335L3.12172 29.4396C3.81841 29.7182 4.47355 29.8667 5.08714 29.8852C5.70564 29.9056 6.27472 29.8012 6.79439 29.5722C7.31208 29.348 7.77495 29.0054 8.183 28.5445C8.59106 28.0836 8.93298 27.5111 9.20879 26.8271C9.53134 27.1717 9.92812 27.4381 10.3991 27.6265Z" fill="#262626"/>
<path fill-rule="evenodd" clip-rule="evenodd" d="M22.9299 16.1242L23.6307 13.8416L25.3634 14.3629L24.5646 16.6219L39.0827 31.5339C39.9222 32.3963 40.0693 33.7153 39.44 34.7402C38.8108 35.7651 37.5648 36.2358 36.4111 35.8847L2.29195 25.4969C1.1385 25.1457 0.369715 24.0615 0.423557 22.8614C0.477399 21.6613 1.33994 20.6497 2.52041 20.4023L22.9299 16.1242ZM36.9109 34.2568C37.3188 34.381 37.7593 34.2144 37.9816 33.8522C38.2041 33.4899 38.1522 33.0237 37.8554 32.7189L23.3143 17.7833L2.87254 22.0681C2.45529 22.1556 2.15033 22.5131 2.13126 22.9374C2.11225 23.3615 2.38404 23.7449 2.79174 23.869L36.9109 34.2568Z" fill="#F04D7D"/>
<path fill-rule="evenodd" clip-rule="evenodd" d="M10.7425 28.0457L10.4164 27.9464L10.8549 26.519L11.181 26.6184L10.7425 28.0457Z" fill="#262626"/>
<path fill-rule="evenodd" clip-rule="evenodd" d="M11.181 26.6184L10.8549 26.519L10.4164 27.9464L10.7425 28.0457L11.181 26.6184Z" fill="#262626"/>
<path d="M31.477 23.776L34.8204 25.6375L35.4667 24.4863L32.1233 22.6248C31.7772 22.4321 31.4508 22.2745 31.144 22.152C30.8398 22.0248 30.5365 21.9555 30.2341 21.9439C29.5209 21.9088 28.8505 22.2021 28.2228 22.8237L29.1346 23.7567C29.3179 23.5812 29.4872 23.4523 29.6425 23.3699C29.8024 23.29 29.9687 23.2529 30.1412 23.2585C30.3183 23.2666 30.5126 23.3144 30.7239 23.4019C30.9353 23.4894 31.1863 23.6141 31.477 23.776Z" fill="#262626"/>
<path d="M9.06224 27.558C9.09774 27.4579 9.13159 27.3555 9.16376 27.2507C9.51451 27.5668 9.93256 27.7988 10.4179 27.9466L13.5574 28.903C13.881 29.0015 14.219 29.044 14.5716 29.0302C14.9241 29.0165 15.2616 28.9348 15.5839 28.7853C15.9129 28.6322 16.2092 28.4059 16.4726 28.1062C16.4893 28.0875 16.5057 28.0685 16.5219 28.0491L14.7476 27.5089C14.6001 27.5475 14.4588 27.5587 14.3236 27.5425C14.181 27.521 14.0717 27.4987 13.9958 27.4756L10.8564 26.5193C10.8008 26.5023 10.702 26.464 10.56 26.4042C10.4246 26.3409 10.2902 26.2477 10.1566 26.1244C10.1497 26.118 10.1428 26.1114 10.1359 26.1048L8.13542 25.4957L7.76292 26.7084C7.71882 26.8519 7.67215 26.9891 7.62292 27.1198L9.06224 27.558Z" fill="#F04D7D"/>
<path d="M28.7524 31.7727L28.2583 33.3813L29.6916 33.8179L30.1858 32.2091L28.7524 31.7727Z" fill="#F04D7D"/>
<path d="M12.6765 18.2713L11.0321 18.6187L11.3744 20.2864L13.0304 19.9379L12.6765 18.2713Z" fill="#262626"/>
<path d="M18.8877 33.5609C19.6699 33.7197 20.34 33.794 20.8979 33.7836C21.4558 33.7733 21.9155 33.6759 22.277 33.4913C22.5907 33.3293 22.8441 33.0933 23.0371 32.7832C23.2352 32.4742 23.3855 32.0694 23.4879 31.569L22.0581 31.2788C21.6955 31.2052 21.3387 31.0763 20.9879 30.8923C20.6371 30.7082 20.3342 30.4614 20.0793 30.1517C19.8295 29.8431 19.6494 29.4707 19.539 29.0345C19.4297 28.5932 19.4342 28.0837 19.5525 27.5059C19.6222 27.1654 19.7135 26.8642 19.8265 26.6023C19.9457 26.3364 20.0715 26.104 20.2039 25.9052C20.3415 25.7075 20.4811 25.5397 20.6226 25.4018C20.7641 25.264 20.8983 25.1488 21.0251 25.0564C21.3681 24.8305 21.7394 24.6775 22.1389 24.5974C22.5384 24.5173 22.948 24.5198 23.3676 24.605C23.7354 24.6796 24.0683 24.8063 24.3662 24.985C24.6642 25.1637 24.9169 25.3923 25.1243 25.6709C25.6906 26.4628 25.8317 27.5527 25.5476 28.9405L24.9488 31.8656C24.7989 32.5981 24.5613 33.2054 24.236 33.6875C23.9148 34.1757 23.4924 34.5521 22.9689 34.8166C22.4401 35.08 21.819 35.228 21.1055 35.2604C20.3961 35.2991 19.557 35.2201 18.5883 35.0235L18.8877 33.5609ZM23.0682 26.0675C22.5553 25.9634 22.1195 26.063 21.7606 26.3663C21.4018 26.6696 21.1553 27.1488 21.0212 27.804C20.8849 28.4695 20.9925 28.9722 21.3437 29.3122C21.4295 29.3941 21.52 29.4662 21.6151 29.5285C21.7113 29.5856 21.8065 29.6345 21.9008 29.6751C21.996 29.7106 22.0814 29.7414 22.157 29.7675C22.2389 29.7895 22.3057 29.8057 22.3575 29.8162L23.7873 30.1065L24.0867 28.6439C24.1638 28.2673 24.2002 27.9443 24.1961 27.6747C24.1929 27.4001 24.1648 27.1687 24.1115 26.9805C24.0583 26.7924 23.9837 26.6429 23.8877 26.5321C23.7979 26.4172 23.7028 26.328 23.6025 26.2647C23.5022 26.2013 23.4033 26.1571 23.3059 26.1319C23.2096 26.1016 23.1304 26.0802 23.0682 26.0675Z" fill="#262626"/>
<path d="M20.9572 13.048V14.8273H20.3535C20.1577 14.8273 19.9565 14.811 19.7498 14.7785C19.5431 14.746 19.3391 14.6973 19.1379 14.6323C18.9421 14.5673 18.7544 14.4861 18.575 14.3886C18.3955 14.2856 18.2323 14.1611 18.0854 14.0148C17.4926 14.5511 16.6577 14.8219 15.5808 14.8273H6.8511C6.45405 14.8273 6.07876 14.7596 5.72522 14.6242C5.37168 14.4888 5.05622 14.2938 4.77883 14.0392C4.67005 13.9363 4.55583 13.8117 4.43617 13.6655C4.32195 13.5192 4.21861 13.3486 4.12614 13.1536C4.03368 12.9532 3.95753 12.7284 3.8977 12.4793C3.83788 12.2247 3.80796 11.9404 3.80796 11.6262C3.80796 11.35 3.83516 11.0494 3.88955 10.7244C3.94938 10.394 4.01192 10.0826 4.07719 9.79007C4.1479 9.49217 4.21589 9.2376 4.28116 9.02636C4.34643 8.80971 4.38722 8.67701 4.40354 8.62826L5.25203 8.89637L6.10867 9.16448C6.0706 9.27822 6.02165 9.43801 5.96182 9.64383C5.90743 9.84423 5.85304 10.0636 5.79865 10.3019C5.74426 10.5348 5.69531 10.7704 5.65179 11.0088C5.61372 11.2471 5.59468 11.4529 5.59468 11.6262C5.59468 11.9566 5.64636 12.2166 5.7497 12.4062C5.85848 12.5957 5.98086 12.7393 6.11683 12.8368C6.25825 12.9289 6.39966 12.9884 6.54108 13.0155C6.68249 13.0372 6.79127 13.048 6.86742 13.048H15.5236C15.937 13.048 16.2552 13.0047 16.4782 12.918C16.7066 12.8314 16.8725 12.7284 16.9759 12.6093C17.0792 12.4847 17.139 12.3574 17.1554 12.2274C17.1717 12.0974 17.1798 11.9891 17.1798 11.9025V9.2051H18.9666V11.8618C18.9666 12.1381 19.0237 12.3547 19.1379 12.5118C19.2521 12.6689 19.3854 12.788 19.5377 12.8693C19.69 12.9451 19.8422 12.9938 19.9945 13.0155C20.1523 13.0372 20.2719 13.048 20.3535 13.048H20.9572ZM13.2474 8.4739L11.9584 7.17397L13.2311 5.85779L14.5528 7.17397L13.2474 8.4739ZM9.96767 8.45765L8.67862 7.15772L9.9432 5.84154L11.2649 7.15772L9.96767 8.45765Z" fill="#262626"/>
<path d="M40.1337 14.8273H39.889C39.4104 14.8273 38.9943 14.7812 38.6407 14.6892C38.2872 14.5917 37.969 14.459 37.6862 14.2911C37.4033 14.1177 37.1423 13.9146 36.903 13.6817C36.6636 13.4434 36.4189 13.1834 36.1687 12.9018C36.0925 13.048 35.9946 13.1943 35.875 13.3405C35.7608 13.4867 35.6329 13.6249 35.4915 13.7548C35.3501 13.8848 35.1951 14.0067 35.0265 14.1205C34.8579 14.2288 34.6838 14.3236 34.5043 14.4048C34.178 14.5456 33.8136 14.6513 33.4111 14.7217C33.0086 14.7921 32.5925 14.8273 32.1628 14.8273H29.6418V13.048H32.2771C32.5653 13.048 32.8427 13.0263 33.1092 12.983C33.3757 12.9343 33.6178 12.872 33.8353 12.7962C34.0529 12.7149 34.2405 12.6201 34.3983 12.5118C34.5614 12.398 34.6838 12.2762 34.7654 12.1462C34.7926 12.0866 34.8144 12.0189 34.8307 11.9431C34.847 11.8618 34.8552 11.7833 34.8552 11.7075C34.8552 11.545 34.798 11.3419 34.6838 11.0981C34.5696 10.849 34.4173 10.5754 34.227 10.2775C34.0366 9.97964 33.819 9.6682 33.5743 9.34322C33.3295 9.01282 33.0766 8.68784 32.8155 8.36828C32.5599 8.04329 32.3043 7.73456 32.0486 7.44208C31.7984 7.14418 31.57 6.87878 31.3633 6.64587L31.6815 5.11846L39.0242 1.74678L39.7584 3.37981L33.3295 6.32902L36.4787 10.5213C36.7887 10.9329 37.0716 11.2958 37.3272 11.61C37.5828 11.9241 37.8385 12.1895 38.0941 12.4062C38.3552 12.6174 38.6271 12.7772 38.91 12.8855C39.1928 12.9938 39.5191 13.048 39.889 13.048H40.1337V14.8273ZM31.9426 2.6486L38.0778 0L38.4531 0.812453L31.8447 3.68042L31.9426 2.6486Z" fill="#262626"/>
<path d="M45.9911 14.811C45.4853 14.811 45.0339 14.7433 44.6368 14.6079C44.2452 14.4671 43.908 14.2613 43.6252 13.9905C43.3315 14.2721 42.997 14.4833 42.6217 14.6242C42.2518 14.7596 41.8792 14.8273 41.5039 14.8273H39.7009V13.048H41.5039C41.5746 13.048 41.678 13.0372 41.814 13.0155C41.9554 12.9884 42.0941 12.9289 42.23 12.8368C42.366 12.7447 42.483 12.6093 42.5809 12.4305C42.6842 12.2464 42.7359 11.9945 42.7359 11.675V9.21323H44.5226V11.6425C44.5226 12.1299 44.6368 12.4847 44.8653 12.7068C45.0937 12.9289 45.469 13.0399 45.9911 13.0399C46.0619 13.0399 46.1652 13.0263 46.3012 12.9993C46.4426 12.9722 46.5813 12.9126 46.7173 12.8205C46.8532 12.723 46.9702 12.5822 47.0681 12.398C47.1714 12.2139 47.2231 11.962 47.2231 11.6425V9.21323H49.0017V11.6425C49.0017 12.1299 49.1186 12.4874 49.3525 12.7149C49.5863 12.9424 49.9671 13.0561 50.4947 13.0561C50.5763 13.0561 50.685 13.0399 50.821 13.0074C50.957 12.9749 51.0902 12.9099 51.2208 12.8124C51.3513 12.7149 51.4655 12.5741 51.5634 12.3899C51.6613 12.2004 51.7103 11.9512 51.7103 11.6425C51.7103 11.5233 51.6994 11.3771 51.6777 11.2037C51.6559 11.025 51.6287 10.8354 51.5961 10.635C51.5634 10.4346 51.5254 10.2315 51.4819 10.0257C51.4438 9.81444 51.403 9.61675 51.3595 9.43259C51.3214 9.24302 51.2833 9.07511 51.2453 8.92887C51.2072 8.78263 51.1773 8.67159 51.1555 8.59576L52.8443 8.05954C52.8552 8.09204 52.877 8.1787 52.9096 8.31953C52.9477 8.46035 52.9885 8.63368 53.032 8.8395C53.0809 9.04532 53.1299 9.27281 53.1788 9.52196C53.2332 9.77111 53.2822 10.023 53.3257 10.2775C53.3692 10.5321 53.4045 10.7786 53.4317 11.0169C53.4589 11.2552 53.4725 11.4637 53.4725 11.6425C53.4725 12.1787 53.3828 12.6445 53.2033 13.0399C53.0293 13.4353 52.8008 13.7657 52.518 14.0311C52.2406 14.2965 51.9224 14.4942 51.5634 14.6242C51.2099 14.7542 50.8536 14.8219 50.4947 14.8273C49.9888 14.8273 49.5347 14.7542 49.1322 14.6079C48.7297 14.4617 48.3843 14.2532 48.0961 13.9823C47.8023 14.264 47.4706 14.4725 47.1007 14.6079C46.7363 14.7433 46.3664 14.811 45.9911 14.811ZM47.8268 5.62218L46.5215 6.93836L45.2161 5.63843L46.5215 4.32226L47.8268 5.62218ZM51.3268 5.58968L50.0378 6.88961L48.6916 5.60593L50.0133 4.28976L51.3268 5.58968ZM49.5238 3.29856L48.3 4.51724L47.0926 3.31481L48.3163 2.09613L49.5238 3.29856Z" fill="#262626"/>
<path fill-rule="evenodd" clip-rule="evenodd" d="M28.0905 13.0318C27.96 13.0263 27.8512 13.0209 27.7642 13.0155C27.1336 13.3827 26.417 13.5762 25.6874 13.5762H25.5719L25.3574 14.3642C25.5967 14.4292 25.8714 14.4915 26.1814 14.5511C26.4914 14.6052 26.8178 14.654 27.1604 14.6973C27.5085 14.7352 27.8648 14.765 28.2292 14.7867C28.5936 14.8137 28.9499 14.8273 29.298 14.8273H29.9833V13.048H29.298H28.939H28.5147C28.3679 13.0426 28.2265 13.0372 28.0905 13.0318ZM23.3581 14.7401L23.8673 13.1519L25.3737 12.6662C25.1344 12.5795 24.9141 12.482 24.7129 12.3737C24.5171 12.2599 24.3484 12.1272 24.207 11.9756C24.0656 11.8239 23.9596 11.6587 23.8888 11.48C23.845 11.3659 23.8148 11.2466 23.7981 11.1221L22.1021 10.7813C22.1021 11.0196 22.1184 11.2417 22.1511 11.4475C22.1891 11.6479 22.2408 11.8375 22.3061 12.0162C22.3768 12.1949 22.4638 12.3655 22.5672 12.528C22.6705 12.6905 22.7902 12.853 22.9261 13.0155C22.8119 13.0263 22.7031 13.0345 22.5998 13.0399C22.5019 13.0399 22.4013 13.0426 22.2979 13.048H21.9716H21.5881H20.6662V14.8273H21.5881C22.2383 14.8273 22.8283 14.7982 23.3581 14.7401ZM25.4308 2.12283L24.0765 3.48775L25.4471 4.86892L26.8178 3.504L25.4308 2.12283Z" fill="#262626"/>
<path d="M26.7384 7.95379C26.3576 7.77505 25.9225 7.68568 25.433 7.68568C24.9707 7.68568 24.5383 7.76963 24.1358 7.93754C23.7333 8.10544 23.3798 8.33022 23.0752 8.61187C22.776 8.89352 22.5394 9.22392 22.3654 9.60307C22.1913 9.9768 22.1043 10.3695 22.1043 10.7811L23.8003 11.122C23.7901 11.0455 23.785 10.9671 23.785 10.8867V10.7893C23.785 10.6213 23.8312 10.4589 23.9237 10.3018C24.0161 10.1393 24.1385 9.99575 24.2908 9.87118C24.4431 9.7466 24.6172 9.64911 24.813 9.5787C25.0142 9.50287 25.2209 9.46495 25.433 9.46495C25.6179 9.46495 25.8001 9.50557 25.9796 9.58682C26.1591 9.66806 26.3196 9.77368 26.461 9.90368C26.6024 10.0337 26.7166 10.1772 26.8036 10.3343C26.8907 10.4859 26.9342 10.6349 26.9342 10.7811C26.9342 11.0411 26.8934 11.2713 26.8118 11.4717C26.7357 11.6667 26.6269 11.84 26.4855 11.9917C26.3495 12.1379 26.1863 12.2652 25.9959 12.3735C25.601 12.5983 25.1443 12.6763 24.6904 12.6966L23.9971 12.7275L23.3603 14.74C23.4776 14.7272 23.592 14.7129 23.7034 14.6972C24.318 14.6105 24.8701 14.4995 25.3596 14.364L25.484 13.9764L26.1323 13.8422C26.5752 13.7506 26.9947 13.5694 27.365 13.3098C27.6751 13.0924 27.9694 12.8404 28.1404 12.5025C28.2184 12.3485 28.2816 12.1916 28.3456 12.0242C28.4762 11.6775 28.5414 11.2632 28.5414 10.7811C28.5414 10.3911 28.4707 10.012 28.3293 9.64369C28.1879 9.26996 27.9839 8.93956 27.7174 8.6525C27.4509 8.36001 27.1245 8.12711 26.7384 7.95379Z" fill="#F04D7D"/>
</svg>